<?xml version="1.0" encoding="UTF-8" standalone="no"?>
<!DOCTYPE svg PUBLIC "-//W3C//DTD SVG 1.1//EN"
 "http://www.w3.org/Graphics/SVG/1.1/DTD/svg11.dtd">
<!-- Generated by graphviz version 2.49.3 (0)
 -->
<!-- Title: G Pages: 1 -->
<svg width="576pt" height="188pt"
 viewBox="0.00 0.00 576.00 188.00" xmlns="http://www.w3.org/2000/svg" xmlns:xlink="http://www.w3.org/1999/xlink">
<g id="graph0" class="graph" transform="scale(1 1) rotate(0) translate(4 184)">
<title>G</title>
<polygon fill="white" stroke="transparent" points="-4,4 -4,-184 572,-184 572,4 -4,4"/>
<!-- 视频插帧算法 -->
<g id="node1" class="node">
<title>视频插帧算法</title>
<polygon fill="gold" stroke="gold" points="390,-180 288,-180 288,-144 390,-144 390,-180"/>
<text text-anchor="middle" x="339" y="-158.3" font-family="Times,serif" font-size="14.00">视频插帧算法</text>
</g>
<!-- CNN法 -->
<g id="node2" class="node">
<title>CNN法</title>
<polygon fill="forestgreen" stroke="forestgreen" points="176,-108 114,-108 114,-72 176,-72 176,-108"/>
<text text-anchor="middle" x="145" y="-86.3" font-family="Times,serif" font-size="14.00">CNN法</text>
</g>
<!-- 视频插帧算法&#45;&gt;CNN法 -->
<g id="edge1" class="edge">
<title>视频插帧算法&#45;&gt;CNN法</title>
<path fill="none" stroke="black" d="M291.54,-143.88C259.15,-132.19 216.69,-116.87 185.81,-105.73"/>
<polygon fill="black" stroke="black" points="186.82,-102.37 176.22,-102.27 184.44,-108.95 186.82,-102.37"/>
</g>
<!-- 相位法 -->
<g id="node3" class="node">
<title>相位法</title>
<polygon fill="forestgreen" stroke="forestgreen" points="291.5,-108 232.5,-108 232.5,-72 291.5,-72 291.5,-108"/>
<text text-anchor="middle" x="262" y="-86.3" font-family="Times,serif" font-size="14.00">相位法</text>
</g>
<!-- 视频插帧算法&#45;&gt;相位法 -->
<g id="edge2" class="edge">
<title>视频插帧算法&#45;&gt;相位法</title>
<path fill="none" stroke="black" d="M319.97,-143.7C310.46,-135.05 298.79,-124.45 288.43,-115.03"/>
<polygon fill="black" stroke="black" points="290.57,-112.24 280.81,-108.1 285.86,-117.42 290.57,-112.24"/>
</g>
<!-- 光流法 -->
<g id="node4" class="node">
<title>光流法</title>
<polygon fill="forestgreen" stroke="forestgreen" points="368.5,-108 309.5,-108 309.5,-72 368.5,-72 368.5,-108"/>
<text text-anchor="middle" x="339" y="-86.3" font-family="Times,serif" font-size="14.00">光流法</text>
</g>
<!-- 视频插帧算法&#45;&gt;光流法 -->
<g id="edge3" class="edge">
<title>视频插帧算法&#45;&gt;光流法</title>
<path fill="none" stroke="black" d="M339,-143.7C339,-135.98 339,-126.71 339,-118.11"/>
<polygon fill="black" stroke="black" points="342.5,-118.1 339,-108.1 335.5,-118.1 342.5,-118.1"/>
</g>
<!-- GAN法 -->
<g id="node5" class="node">
<title>GAN法</title>
<polygon fill="forestgreen" stroke="forestgreen" points="447.5,-108 386.5,-108 386.5,-72 447.5,-72 447.5,-108"/>
<text text-anchor="middle" x="417" y="-86.3" font-family="Times,serif" font-size="14.00">GAN法</text>
</g>
<!-- 视频插帧算法&#45;&gt;GAN法 -->
<g id="edge4" class="edge">
<title>视频插帧算法&#45;&gt;GAN法</title>
<path fill="none" stroke="black" d="M358.28,-143.7C367.92,-135.05 379.73,-124.45 390.23,-115.03"/>
<polygon fill="black" stroke="black" points="392.84,-117.39 397.94,-108.1 388.16,-112.18 392.84,-117.39"/>
</g>
<!-- 多因素混合法 -->
<g id="node6" class="node">
<title>多因素混合法</title>
<polygon fill="forestgreen" stroke="forestgreen" points="568,-108 466,-108 466,-72 568,-72 568,-108"/>
<text text-anchor="middle" x="517" y="-86.3" font-family="Times,serif" font-size="14.00">多因素混合法</text>
</g>
<!-- 视频插帧算法&#45;&gt;多因素混合法 -->
<g id="edge5" class="edge">
<title>视频插帧算法&#45;&gt;多因素混合法</title>
<path fill="none" stroke="black" d="M382.54,-143.88C407.2,-134.18 438.22,-121.98 464.25,-111.74"/>
<polygon fill="black" stroke="black" points="465.57,-114.99 473.6,-108.07 463.01,-108.47 465.57,-114.99"/>
</g>
<!-- 一般CNN法 -->
<g id="node7" class="node">
<title>一般CNN法</title>
<polygon fill="lightblue" stroke="lightblue" points="90,-36 0,-36 0,0 90,0 90,-36"/>
<text text-anchor="middle" x="45" y="-14.3" font-family="Times,serif" font-size="14.00">一般CNN法</text>
</g>
<!-- CNN法&#45;&gt;一般CNN法 -->
<g id="edge6" class="edge">
<title>CNN法&#45;&gt;一般CNN法</title>
<path fill="none" stroke="black" d="M120.54,-71.88C107.7,-62.89 91.8,-51.76 77.91,-42.03"/>
<polygon fill="black" stroke="black" points="79.76,-39.06 69.56,-36.19 75.74,-44.79 79.76,-39.06"/>
</g>
<!-- 核函数法 -->
<g id="node8" class="node">
<title>核函数法</title>
<polygon fill="lightblue" stroke="lightblue" points="182,-36 108,-36 108,0 182,0 182,-36"/>
<text text-anchor="middle" x="145" y="-14.3" font-family="Times,serif" font-size="14.00">核函数法</text>
</g>
<!-- CNN法&#45;&gt;核函数法 -->
<g id="edge7" class="edge">
<title>CNN法&#45;&gt;核函数法</title>
<path fill="none" stroke="black" d="M145,-71.7C145,-63.98 145,-54.71 145,-46.11"/>
<polygon fill="black" stroke="black" points="148.5,-46.1 145,-36.1 141.5,-46.1 148.5,-46.1"/>
</g>
<!-- 路径选择性插值 -->
<g id="node9" class="node">
<title>路径选择性插值</title>
<polygon fill="lightblue" stroke="lightblue" points="316,-36 200,-36 200,0 316,0 316,-36"/>
<text text-anchor="middle" x="258" y="-14.3" font-family="Times,serif" font-size="14.00">路径选择性插值</text>
</g>
<!-- 光流法&#45;&gt;路径选择性插值 -->
<g id="edge8" class="edge">
<title>光流法&#45;&gt;路径选择性插值</title>
<path fill="none" stroke="black" d="M318.98,-71.7C308.87,-62.97 296.46,-52.24 285.48,-42.75"/>
<polygon fill="black" stroke="black" points="287.65,-39.99 277.79,-36.1 283.07,-45.29 287.65,-39.99"/>
</g>
<!-- 光流估计法 -->
<g id="node10" class="node">
<title>光流估计法</title>
<polygon fill="lightblue" stroke="lightblue" points="422,-36 334,-36 334,0 422,0 422,-36"/>
<text text-anchor="middle" x="378" y="-14.3" font-family="Times,serif" font-size="14.00">光流估计法</text>
</g>
<!-- 光流法&#45;&gt;光流估计法 -->
<g id="edge9" class="edge">
<title>光流法&#45;&gt;光流估计法</title>
<path fill="none" stroke="black" d="M348.64,-71.7C353.13,-63.64 358.56,-53.89 363.52,-44.98"/>
<polygon fill="black" stroke="black" points="366.66,-46.54 368.47,-36.1 360.55,-43.14 366.66,-46.54"/>
</g>
<!-- 运动补偿法 -->
<g id="node11" class="node">
<title>运动补偿法</title>
<polygon fill="lightblue" stroke="lightblue" points="528,-36 440,-36 440,0 528,0 528,-36"/>
<text text-anchor="middle" x="484" y="-14.3" font-family="Times,serif" font-size="14.00">运动补偿法</text>
</g>
<!-- 光流法&#45;&gt;运动补偿法 -->
<g id="edge10" class="edge">
<title>光流法&#45;&gt;运动补偿法</title>
<path fill="none" stroke="black" d="M368.69,-74.67C389.08,-64.82 416.51,-51.58 439.5,-40.48"/>
<polygon fill="black" stroke="black" points="441.24,-43.53 448.72,-36.03 438.19,-37.23 441.24,-43.53"/>
</g>
</g>
</svg>
