<?xml version="1.0" encoding="UTF-8" standalone="no"?>
<!DOCTYPE svg PUBLIC "-//W3C//DTD SVG 1.1//EN"
 "http://www.w3.org/Graphics/SVG/1.1/DTD/svg11.dtd">
<!-- Generated by graphviz version 2.49.3 (0)
 -->
<!-- Title: G Pages: 1 -->
<svg width="365pt" height="476pt"
 viewBox="0.00 0.00 365.00 476.00" xmlns="http://www.w3.org/2000/svg" xmlns:xlink="http://www.w3.org/1999/xlink">
<g id="graph0" class="graph" transform="scale(1 1) rotate(0) translate(4 472)">
<title>G</title>
<polygon fill="white" stroke="transparent" points="-4,4 -4,-472 361,-472 361,4 -4,4"/>
<!-- text data -->
<g id="node1" class="node">
<title>text data</title>
<text text-anchor="middle" x="47.5" y="-446.3" font-family="Times,serif" font-size="14.00">text data</text>
</g>
<!-- bert -->
<g id="node2" class="node">
<title>bert</title>
<polygon fill="none" stroke="black" points="74.5,-396 20.5,-396 20.5,-360 74.5,-360 74.5,-396"/>
<text text-anchor="middle" x="47.5" y="-374.3" font-family="Times,serif" font-size="14.00">bert</text>
</g>
<!-- text data&#45;&gt;bert -->
<g id="edge1" class="edge">
<title>text data&#45;&gt;bert</title>
<path fill="none" stroke="black" d="M47.5,-431.7C47.5,-423.98 47.5,-414.71 47.5,-406.11"/>
<polygon fill="black" stroke="black" points="51,-406.1 47.5,-396.1 44,-406.1 51,-406.1"/>
</g>
<!-- text feature -->
<g id="node3" class="node">
<title>text feature</title>
<text text-anchor="middle" x="47.5" y="-302.3" font-family="Times,serif" font-size="14.00">text feature</text>
</g>
<!-- bert&#45;&gt;text feature -->
<g id="edge2" class="edge">
<title>bert&#45;&gt;text feature</title>
<path fill="none" stroke="black" d="M47.5,-359.7C47.5,-351.98 47.5,-342.71 47.5,-334.11"/>
<polygon fill="black" stroke="black" points="51,-334.1 47.5,-324.1 44,-334.1 51,-334.1"/>
</g>
<!-- text model -->
<g id="node4" class="node">
<title>text model</title>
<polygon fill="none" stroke="black" points="84.5,-252 10.5,-252 10.5,-216 84.5,-216 84.5,-252"/>
<text text-anchor="middle" x="47.5" y="-230.3" font-family="Times,serif" font-size="14.00">text model</text>
</g>
<!-- text feature&#45;&gt;text model -->
<g id="edge3" class="edge">
<title>text feature&#45;&gt;text model</title>
<path fill="none" stroke="black" d="M47.5,-287.7C47.5,-279.98 47.5,-270.71 47.5,-262.11"/>
<polygon fill="black" stroke="black" points="51,-262.1 47.5,-252.1 44,-262.1 51,-262.1"/>
</g>
<!-- text prediction -->
<g id="node5" class="node">
<title>text prediction</title>
<text text-anchor="middle" x="47.5" y="-158.3" font-family="Times,serif" font-size="14.00">text prediction</text>
</g>
<!-- text model&#45;&gt;text prediction -->
<g id="edge4" class="edge">
<title>text model&#45;&gt;text prediction</title>
<path fill="none" stroke="black" d="M47.5,-215.7C47.5,-207.98 47.5,-198.71 47.5,-190.11"/>
<polygon fill="black" stroke="black" points="51,-190.1 47.5,-180.1 44,-190.1 51,-190.1"/>
</g>
<!-- average or vote or NN -->
<g id="node16" class="node">
<title>average or vote or NN</title>
<polygon fill="none" stroke="black" points="236,-108 97,-108 97,-72 236,-72 236,-108"/>
<text text-anchor="middle" x="166.5" y="-86.3" font-family="Times,serif" font-size="14.00">average or vote or NN</text>
</g>
<!-- text prediction&#45;&gt;average or vote or NN -->
<g id="edge13" class="edge">
<title>text prediction&#45;&gt;average or vote or NN</title>
<path fill="none" stroke="black" d="M76.61,-143.88C92.17,-134.72 111.52,-123.34 128.28,-113.48"/>
<polygon fill="black" stroke="black" points="130.43,-116.28 137.28,-108.19 126.88,-110.24 130.43,-116.28"/>
</g>
<!-- visual data -->
<g id="node6" class="node">
<title>visual data</title>
<text text-anchor="middle" x="166.5" y="-446.3" font-family="Times,serif" font-size="14.00">visual data</text>
</g>
<!-- visual lstm -->
<g id="node7" class="node">
<title>visual lstm</title>
<polygon fill="none" stroke="black" points="204.5,-396 128.5,-396 128.5,-360 204.5,-360 204.5,-396"/>
<text text-anchor="middle" x="166.5" y="-374.3" font-family="Times,serif" font-size="14.00">visual lstm</text>
</g>
<!-- visual data&#45;&gt;visual lstm -->
<g id="edge5" class="edge">
<title>visual data&#45;&gt;visual lstm</title>
<path fill="none" stroke="black" d="M166.5,-431.7C166.5,-423.98 166.5,-414.71 166.5,-406.11"/>
<polygon fill="black" stroke="black" points="170,-406.1 166.5,-396.1 163,-406.1 170,-406.1"/>
</g>
<!-- visual feature -->
<g id="node8" class="node">
<title>visual feature</title>
<text text-anchor="middle" x="166.5" y="-302.3" font-family="Times,serif" font-size="14.00">visual feature</text>
</g>
<!-- visual lstm&#45;&gt;visual feature -->
<g id="edge6" class="edge">
<title>visual lstm&#45;&gt;visual feature</title>
<path fill="none" stroke="black" d="M166.5,-359.7C166.5,-351.98 166.5,-342.71 166.5,-334.11"/>
<polygon fill="black" stroke="black" points="170,-334.1 166.5,-324.1 163,-334.1 170,-334.1"/>
</g>
<!-- visual model -->
<g id="node9" class="node">
<title>visual model</title>
<polygon fill="none" stroke="black" points="209.5,-252 123.5,-252 123.5,-216 209.5,-216 209.5,-252"/>
<text text-anchor="middle" x="166.5" y="-230.3" font-family="Times,serif" font-size="14.00">visual model</text>
</g>
<!-- visual feature&#45;&gt;visual model -->
<g id="edge7" class="edge">
<title>visual feature&#45;&gt;visual model</title>
<path fill="none" stroke="black" d="M166.5,-287.7C166.5,-279.98 166.5,-270.71 166.5,-262.11"/>
<polygon fill="black" stroke="black" points="170,-262.1 166.5,-252.1 163,-262.1 170,-262.1"/>
</g>
<!-- visual prediction -->
<g id="node10" class="node">
<title>visual prediction</title>
<text text-anchor="middle" x="166.5" y="-158.3" font-family="Times,serif" font-size="14.00">visual prediction</text>
</g>
<!-- visual model&#45;&gt;visual prediction -->
<g id="edge8" class="edge">
<title>visual model&#45;&gt;visual prediction</title>
<path fill="none" stroke="black" d="M166.5,-215.7C166.5,-207.98 166.5,-198.71 166.5,-190.11"/>
<polygon fill="black" stroke="black" points="170,-190.1 166.5,-180.1 163,-190.1 170,-190.1"/>
</g>
<!-- visual prediction&#45;&gt;average or vote or NN -->
<g id="edge14" class="edge">
<title>visual prediction&#45;&gt;average or vote or NN</title>
<path fill="none" stroke="black" d="M166.5,-143.7C166.5,-135.98 166.5,-126.71 166.5,-118.11"/>
<polygon fill="black" stroke="black" points="170,-118.1 166.5,-108.1 163,-118.1 170,-118.1"/>
</g>
<!-- acoustic data -->
<g id="node11" class="node">
<title>acoustic data</title>
<text text-anchor="middle" x="297.5" y="-446.3" font-family="Times,serif" font-size="14.00">acoustic data</text>
</g>
<!-- acoustic lstm -->
<g id="node12" class="node">
<title>acoustic lstm</title>
<polygon fill="none" stroke="black" points="342,-396 253,-396 253,-360 342,-360 342,-396"/>
<text text-anchor="middle" x="297.5" y="-374.3" font-family="Times,serif" font-size="14.00">acoustic lstm</text>
</g>
<!-- acoustic data&#45;&gt;acoustic lstm -->
<g id="edge9" class="edge">
<title>acoustic data&#45;&gt;acoustic lstm</title>
<path fill="none" stroke="black" d="M297.5,-431.7C297.5,-423.98 297.5,-414.71 297.5,-406.11"/>
<polygon fill="black" stroke="black" points="301,-406.1 297.5,-396.1 294,-406.1 301,-406.1"/>
</g>
<!-- acoustic feature -->
<g id="node13" class="node">
<title>acoustic feature</title>
<text text-anchor="middle" x="297.5" y="-302.3" font-family="Times,serif" font-size="14.00">acoustic feature</text>
</g>
<!-- acoustic lstm&#45;&gt;acoustic feature -->
<g id="edge10" class="edge">
<title>acoustic lstm&#45;&gt;acoustic feature</title>
<path fill="none" stroke="black" d="M297.5,-359.7C297.5,-351.98 297.5,-342.71 297.5,-334.11"/>
<polygon fill="black" stroke="black" points="301,-334.1 297.5,-324.1 294,-334.1 301,-334.1"/>
</g>
<!-- acoustic model -->
<g id="node14" class="node">
<title>acoustic model</title>
<polygon fill="none" stroke="black" points="346.5,-252 248.5,-252 248.5,-216 346.5,-216 346.5,-252"/>
<text text-anchor="middle" x="297.5" y="-230.3" font-family="Times,serif" font-size="14.00">acoustic model</text>
</g>
<!-- acoustic feature&#45;&gt;acoustic model -->
<g id="edge11" class="edge">
<title>acoustic feature&#45;&gt;acoustic model</title>
<path fill="none" stroke="black" d="M297.5,-287.7C297.5,-279.98 297.5,-270.71 297.5,-262.11"/>
<polygon fill="black" stroke="black" points="301,-262.1 297.5,-252.1 294,-262.1 301,-262.1"/>
</g>
<!-- acoustic prediction -->
<g id="node15" class="node">
<title>acoustic prediction</title>
<text text-anchor="middle" x="297.5" y="-158.3" font-family="Times,serif" font-size="14.00">acoustic prediction</text>
</g>
<!-- acoustic model&#45;&gt;acoustic prediction -->
<g id="edge12" class="edge">
<title>acoustic model&#45;&gt;acoustic prediction</title>
<path fill="none" stroke="black" d="M297.5,-215.7C297.5,-207.98 297.5,-198.71 297.5,-190.11"/>
<polygon fill="black" stroke="black" points="301,-190.1 297.5,-180.1 294,-190.1 301,-190.1"/>
</g>
<!-- acoustic prediction&#45;&gt;average or vote or NN -->
<g id="edge15" class="edge">
<title>acoustic prediction&#45;&gt;average or vote or NN</title>
<path fill="none" stroke="black" d="M265.45,-143.88C248.01,-134.55 226.23,-122.92 207.56,-112.94"/>
<polygon fill="black" stroke="black" points="209.14,-109.82 198.67,-108.19 205.84,-115.99 209.14,-109.82"/>
</g>
<!-- label -->
<g id="node17" class="node">
<title>label</title>
<text text-anchor="middle" x="166.5" y="-14.3" font-family="Times,serif" font-size="14.00">label</text>
</g>
<!-- average or vote or NN&#45;&gt;label -->
<g id="edge16" class="edge">
<title>average or vote or NN&#45;&gt;label</title>
<path fill="none" stroke="black" d="M166.5,-71.7C166.5,-63.98 166.5,-54.71 166.5,-46.11"/>
<polygon fill="black" stroke="black" points="170,-46.1 166.5,-36.1 163,-46.1 170,-46.1"/>
</g>
</g>
</svg>
