<?xml version="1.0" encoding="UTF-8" standalone="no"?>
<!DOCTYPE svg PUBLIC "-//W3C//DTD SVG 1.1//EN"
 "http://www.w3.org/Graphics/SVG/1.1/DTD/svg11.dtd">
<!-- Generated by graphviz version 2.49.3 (0)
 -->
<!-- Title: G Pages: 1 -->
<svg width="313pt" height="404pt"
 viewBox="0.00 0.00 313.00 404.00" xmlns="http://www.w3.org/2000/svg" xmlns:xlink="http://www.w3.org/1999/xlink">
<g id="graph0" class="graph" transform="scale(1 1) rotate(0) translate(4 400)">
<title>G</title>
<polygon fill="white" stroke="transparent" points="-4,4 -4,-400 309,-400 309,4 -4,4"/>
<!-- text data -->
<g id="node1" class="node">
<title>text data</title>
<text text-anchor="middle" x="39" y="-374.3" font-family="Times,serif" font-size="14.00">text data</text>
</g>
<!-- bert -->
<g id="node2" class="node">
<title>bert</title>
<polygon fill="none" stroke="black" points="66,-324 12,-324 12,-288 66,-288 66,-324"/>
<text text-anchor="middle" x="39" y="-302.3" font-family="Times,serif" font-size="14.00">bert</text>
</g>
<!-- text data&#45;&gt;bert -->
<g id="edge1" class="edge">
<title>text data&#45;&gt;bert</title>
<path fill="none" stroke="black" d="M39,-359.7C39,-351.98 39,-342.71 39,-334.11"/>
<polygon fill="black" stroke="black" points="42.5,-334.1 39,-324.1 35.5,-334.1 42.5,-334.1"/>
</g>
<!-- text feature -->
<g id="node3" class="node">
<title>text feature</title>
<text text-anchor="middle" x="39" y="-230.3" font-family="Times,serif" font-size="14.00">text feature</text>
</g>
<!-- bert&#45;&gt;text feature -->
<g id="edge2" class="edge">
<title>bert&#45;&gt;text feature</title>
<path fill="none" stroke="black" d="M39,-287.7C39,-279.98 39,-270.71 39,-262.11"/>
<polygon fill="black" stroke="black" points="42.5,-262.1 39,-252.1 35.5,-262.1 42.5,-262.1"/>
</g>
<!-- cat -->
<g id="node4" class="node">
<title>cat</title>
<polygon fill="none" stroke="black" points="168,-180 114,-180 114,-144 168,-144 168,-180"/>
<text text-anchor="middle" x="141" y="-158.3" font-family="Times,serif" font-size="14.00">cat</text>
</g>
<!-- text feature&#45;&gt;cat -->
<g id="edge3" class="edge">
<title>text feature&#45;&gt;cat</title>
<path fill="none" stroke="black" d="M63.95,-215.88C77.04,-206.89 93.26,-195.76 107.44,-186.03"/>
<polygon fill="black" stroke="black" points="109.69,-188.73 115.95,-180.19 105.73,-182.96 109.69,-188.73"/>
</g>
<!-- fusion model -->
<g id="node11" class="node">
<title>fusion model</title>
<polygon fill="none" stroke="black" points="185,-108 97,-108 97,-72 185,-72 185,-108"/>
<text text-anchor="middle" x="141" y="-86.3" font-family="Times,serif" font-size="14.00">fusion model</text>
</g>
<!-- cat&#45;&gt;fusion model -->
<g id="edge10" class="edge">
<title>cat&#45;&gt;fusion model</title>
<path fill="none" stroke="black" d="M141,-143.7C141,-135.98 141,-126.71 141,-118.11"/>
<polygon fill="black" stroke="black" points="144.5,-118.1 141,-108.1 137.5,-118.1 144.5,-118.1"/>
</g>
<!-- visual data -->
<g id="node5" class="node">
<title>visual data</title>
<text text-anchor="middle" x="141" y="-374.3" font-family="Times,serif" font-size="14.00">visual data</text>
</g>
<!-- visual lstm -->
<g id="node6" class="node">
<title>visual lstm</title>
<polygon fill="none" stroke="black" points="179,-324 103,-324 103,-288 179,-288 179,-324"/>
<text text-anchor="middle" x="141" y="-302.3" font-family="Times,serif" font-size="14.00">visual lstm</text>
</g>
<!-- visual data&#45;&gt;visual lstm -->
<g id="edge4" class="edge">
<title>visual data&#45;&gt;visual lstm</title>
<path fill="none" stroke="black" d="M141,-359.7C141,-351.98 141,-342.71 141,-334.11"/>
<polygon fill="black" stroke="black" points="144.5,-334.1 141,-324.1 137.5,-334.1 144.5,-334.1"/>
</g>
<!-- visual feature -->
<g id="node7" class="node">
<title>visual feature</title>
<text text-anchor="middle" x="141" y="-230.3" font-family="Times,serif" font-size="14.00">visual feature</text>
</g>
<!-- visual lstm&#45;&gt;visual feature -->
<g id="edge5" class="edge">
<title>visual lstm&#45;&gt;visual feature</title>
<path fill="none" stroke="black" d="M141,-287.7C141,-279.98 141,-270.71 141,-262.11"/>
<polygon fill="black" stroke="black" points="144.5,-262.1 141,-252.1 137.5,-262.1 144.5,-262.1"/>
</g>
<!-- visual feature&#45;&gt;cat -->
<g id="edge6" class="edge">
<title>visual feature&#45;&gt;cat</title>
<path fill="none" stroke="black" d="M141,-215.7C141,-207.98 141,-198.71 141,-190.11"/>
<polygon fill="black" stroke="black" points="144.5,-190.1 141,-180.1 137.5,-190.1 144.5,-190.1"/>
</g>
<!-- acoustic data -->
<g id="node8" class="node">
<title>acoustic data</title>
<text text-anchor="middle" x="254" y="-374.3" font-family="Times,serif" font-size="14.00">acoustic data</text>
</g>
<!-- acoustic lstm -->
<g id="node9" class="node">
<title>acoustic lstm</title>
<polygon fill="none" stroke="black" points="298.5,-324 209.5,-324 209.5,-288 298.5,-288 298.5,-324"/>
<text text-anchor="middle" x="254" y="-302.3" font-family="Times,serif" font-size="14.00">acoustic lstm</text>
</g>
<!-- acoustic data&#45;&gt;acoustic lstm -->
<g id="edge7" class="edge">
<title>acoustic data&#45;&gt;acoustic lstm</title>
<path fill="none" stroke="black" d="M254,-359.7C254,-351.98 254,-342.71 254,-334.11"/>
<polygon fill="black" stroke="black" points="257.5,-334.1 254,-324.1 250.5,-334.1 257.5,-334.1"/>
</g>
<!-- acoustic feature -->
<g id="node10" class="node">
<title>acoustic feature</title>
<text text-anchor="middle" x="254" y="-230.3" font-family="Times,serif" font-size="14.00">acoustic feature</text>
</g>
<!-- acoustic lstm&#45;&gt;acoustic feature -->
<g id="edge8" class="edge">
<title>acoustic lstm&#45;&gt;acoustic feature</title>
<path fill="none" stroke="black" d="M254,-287.7C254,-279.98 254,-270.71 254,-262.11"/>
<polygon fill="black" stroke="black" points="257.5,-262.1 254,-252.1 250.5,-262.1 257.5,-262.1"/>
</g>
<!-- acoustic feature&#45;&gt;cat -->
<g id="edge9" class="edge">
<title>acoustic feature&#45;&gt;cat</title>
<path fill="none" stroke="black" d="M226.36,-215.88C211.47,-206.66 192.93,-195.17 176.94,-185.26"/>
<polygon fill="black" stroke="black" points="178.7,-182.24 168.36,-179.95 175.02,-188.19 178.7,-182.24"/>
</g>
<!-- label -->
<g id="node12" class="node">
<title>label</title>
<text text-anchor="middle" x="141" y="-14.3" font-family="Times,serif" font-size="14.00">label</text>
</g>
<!-- fusion model&#45;&gt;label -->
<g id="edge11" class="edge">
<title>fusion model&#45;&gt;label</title>
<path fill="none" stroke="black" d="M141,-71.7C141,-63.98 141,-54.71 141,-46.11"/>
<polygon fill="black" stroke="black" points="144.5,-46.1 141,-36.1 137.5,-46.1 144.5,-46.1"/>
</g>
</g>
</svg>
