<?xml version="1.0" encoding="UTF-8" standalone="no"?>
<!DOCTYPE svg PUBLIC "-//W3C//DTD SVG 1.1//EN"
 "http://www.w3.org/Graphics/SVG/1.1/DTD/svg11.dtd">
<!-- Generated by graphviz version 2.49.3 (0)
 -->
<!-- Title: G Pages: 1 -->
<svg width="520pt" height="476pt"
 viewBox="0.00 0.00 520.00 476.00" xmlns="http://www.w3.org/2000/svg" xmlns:xlink="http://www.w3.org/1999/xlink">
<g id="graph0" class="graph" transform="scale(1 1) rotate(0) translate(4 472)">
<title>G</title>
<polygon fill="white" stroke="transparent" points="-4,4 -4,-472 516,-472 516,4 -4,4"/>
<!-- text data -->
<g id="node1" class="node">
<title>text data</title>
<text text-anchor="middle" x="72.5" y="-446.3" font-family="Times,serif" font-size="14.00">text data</text>
</g>
<!-- bert -->
<g id="node2" class="node">
<title>bert</title>
<polygon fill="none" stroke="black" points="99.5,-396 45.5,-396 45.5,-360 99.5,-360 99.5,-396"/>
<text text-anchor="middle" x="72.5" y="-374.3" font-family="Times,serif" font-size="14.00">bert</text>
</g>
<!-- text data&#45;&gt;bert -->
<g id="edge1" class="edge">
<title>text data&#45;&gt;bert</title>
<path fill="none" stroke="black" d="M72.5,-431.7C72.5,-423.98 72.5,-414.71 72.5,-406.11"/>
<polygon fill="black" stroke="black" points="76,-406.1 72.5,-396.1 69,-406.1 76,-406.1"/>
</g>
<!-- text feature -->
<g id="node3" class="node">
<title>text feature</title>
<text text-anchor="middle" x="60.5" y="-302.3" font-family="Times,serif" font-size="14.00">text feature</text>
</g>
<!-- bert&#45;&gt;text feature -->
<g id="edge2" class="edge">
<title>bert&#45;&gt;text feature</title>
<path fill="none" stroke="black" d="M69.53,-359.7C68.21,-351.98 66.62,-342.71 65.15,-334.11"/>
<polygon fill="black" stroke="black" points="68.57,-333.37 63.43,-324.1 61.67,-334.55 68.57,-333.37"/>
</g>
<!-- visual lstm -->
<g id="node7" class="node">
<title>visual lstm</title>
<polygon fill="none" stroke="black" points="204.5,-396 128.5,-396 128.5,-360 204.5,-360 204.5,-396"/>
<text text-anchor="middle" x="166.5" y="-374.3" font-family="Times,serif" font-size="14.00">visual lstm</text>
</g>
<!-- bert&#45;&gt;visual lstm -->
<!-- text model -->
<g id="node4" class="node">
<title>text model</title>
<polygon fill="none" stroke="black" points="89.5,-252 15.5,-252 15.5,-216 89.5,-216 89.5,-252"/>
<text text-anchor="middle" x="52.5" y="-230.3" font-family="Times,serif" font-size="14.00">text model</text>
</g>
<!-- text feature&#45;&gt;text model -->
<g id="edge3" class="edge">
<title>text feature&#45;&gt;text model</title>
<path fill="none" stroke="black" d="M58.52,-287.7C57.64,-279.98 56.58,-270.71 55.6,-262.11"/>
<polygon fill="black" stroke="black" points="59.07,-261.64 54.45,-252.1 52.11,-262.44 59.07,-261.64"/>
</g>
<!-- cat -->
<g id="node19" class="node">
<title>cat</title>
<polygon fill="none" stroke="black" points="399.5,-396 345.5,-396 345.5,-360 399.5,-360 399.5,-396"/>
<text text-anchor="middle" x="372.5" y="-374.3" font-family="Times,serif" font-size="14.00">cat</text>
</g>
<!-- text feature&#45;&gt;cat -->
<g id="edge18" class="edge">
<title>text feature&#45;&gt;cat</title>
<path fill="none" stroke="black" d="M99.68,-320.29C104.31,-321.65 108.99,-322.92 113.5,-324 208.08,-346.67 238.7,-331.3 335.7,-360.24"/>
<polygon fill="black" stroke="black" points="334.71,-363.6 345.3,-363.19 336.77,-356.91 334.71,-363.6"/>
</g>
<!-- text prediction -->
<g id="node5" class="node">
<title>text prediction</title>
<text text-anchor="middle" x="47.5" y="-158.3" font-family="Times,serif" font-size="14.00">text prediction</text>
</g>
<!-- text model&#45;&gt;text prediction -->
<g id="edge4" class="edge">
<title>text model&#45;&gt;text prediction</title>
<path fill="none" stroke="black" d="M51.26,-215.7C50.71,-207.98 50.05,-198.71 49.44,-190.11"/>
<polygon fill="black" stroke="black" points="52.93,-189.83 48.72,-180.1 45.94,-190.33 52.93,-189.83"/>
</g>
<!-- average or vote or NN -->
<g id="node20" class="node">
<title>average or vote or NN</title>
<polygon fill="none" stroke="black" points="301,-108 162,-108 162,-72 301,-72 301,-108"/>
<text text-anchor="middle" x="231.5" y="-86.3" font-family="Times,serif" font-size="14.00">average or vote or NN</text>
</g>
<!-- text prediction&#45;&gt;average or vote or NN -->
<g id="edge22" class="edge">
<title>text prediction&#45;&gt;average or vote or NN</title>
<path fill="none" stroke="black" d="M92.51,-143.88C118,-134.18 150.07,-121.98 176.98,-111.74"/>
<polygon fill="black" stroke="black" points="178.53,-114.9 186.63,-108.07 176.04,-108.35 178.53,-114.9"/>
</g>
<!-- visual data -->
<g id="node6" class="node">
<title>visual data</title>
<text text-anchor="middle" x="166.5" y="-446.3" font-family="Times,serif" font-size="14.00">visual data</text>
</g>
<!-- visual data&#45;&gt;visual lstm -->
<g id="edge5" class="edge">
<title>visual data&#45;&gt;visual lstm</title>
<path fill="none" stroke="black" d="M166.5,-431.7C166.5,-423.98 166.5,-414.71 166.5,-406.11"/>
<polygon fill="black" stroke="black" points="170,-406.1 166.5,-396.1 163,-406.1 170,-406.1"/>
</g>
<!-- visual feature -->
<g id="node8" class="node">
<title>visual feature</title>
<text text-anchor="middle" x="166.5" y="-302.3" font-family="Times,serif" font-size="14.00">visual feature</text>
</g>
<!-- visual lstm&#45;&gt;visual feature -->
<g id="edge6" class="edge">
<title>visual lstm&#45;&gt;visual feature</title>
<path fill="none" stroke="black" d="M166.5,-359.7C166.5,-351.98 166.5,-342.71 166.5,-334.11"/>
<polygon fill="black" stroke="black" points="170,-334.1 166.5,-324.1 163,-334.1 170,-334.1"/>
</g>
<!-- acoustic lstm -->
<g id="node12" class="node">
<title>acoustic lstm</title>
<polygon fill="none" stroke="black" points="327,-396 238,-396 238,-360 327,-360 327,-396"/>
<text text-anchor="middle" x="282.5" y="-374.3" font-family="Times,serif" font-size="14.00">acoustic lstm</text>
</g>
<!-- visual lstm&#45;&gt;acoustic lstm -->
<!-- visual model -->
<g id="node9" class="node">
<title>visual model</title>
<polygon fill="none" stroke="black" points="209.5,-252 123.5,-252 123.5,-216 209.5,-216 209.5,-252"/>
<text text-anchor="middle" x="166.5" y="-230.3" font-family="Times,serif" font-size="14.00">visual model</text>
</g>
<!-- visual feature&#45;&gt;visual model -->
<g id="edge7" class="edge">
<title>visual feature&#45;&gt;visual model</title>
<path fill="none" stroke="black" d="M166.5,-287.7C166.5,-279.98 166.5,-270.71 166.5,-262.11"/>
<polygon fill="black" stroke="black" points="170,-262.1 166.5,-252.1 163,-262.1 170,-262.1"/>
</g>
<!-- visual feature&#45;&gt;cat -->
<g id="edge19" class="edge">
<title>visual feature&#45;&gt;cat</title>
<path fill="none" stroke="black" d="M211.36,-320.22C249.61,-331.61 302.5,-347.7 335.57,-359.94"/>
<polygon fill="black" stroke="black" points="334.56,-363.3 345.15,-363.61 337.06,-356.76 334.56,-363.3"/>
</g>
<!-- visual prediction -->
<g id="node10" class="node">
<title>visual prediction</title>
<text text-anchor="middle" x="166.5" y="-158.3" font-family="Times,serif" font-size="14.00">visual prediction</text>
</g>
<!-- visual model&#45;&gt;visual prediction -->
<g id="edge8" class="edge">
<title>visual model&#45;&gt;visual prediction</title>
<path fill="none" stroke="black" d="M166.5,-215.7C166.5,-207.98 166.5,-198.71 166.5,-190.11"/>
<polygon fill="black" stroke="black" points="170,-190.1 166.5,-180.1 163,-190.1 170,-190.1"/>
</g>
<!-- visual prediction&#45;&gt;average or vote or NN -->
<g id="edge23" class="edge">
<title>visual prediction&#45;&gt;average or vote or NN</title>
<path fill="none" stroke="black" d="M182.57,-143.7C190.44,-135.22 200.06,-124.86 208.67,-115.58"/>
<polygon fill="black" stroke="black" points="211.38,-117.81 215.62,-108.1 206.25,-113.05 211.38,-117.81"/>
</g>
<!-- acoustic data -->
<g id="node11" class="node">
<title>acoustic data</title>
<text text-anchor="middle" x="282.5" y="-446.3" font-family="Times,serif" font-size="14.00">acoustic data</text>
</g>
<!-- acoustic data&#45;&gt;acoustic lstm -->
<g id="edge9" class="edge">
<title>acoustic data&#45;&gt;acoustic lstm</title>
<path fill="none" stroke="black" d="M282.5,-431.7C282.5,-423.98 282.5,-414.71 282.5,-406.11"/>
<polygon fill="black" stroke="black" points="286,-406.1 282.5,-396.1 279,-406.1 286,-406.1"/>
</g>
<!-- acoustic feature -->
<g id="node13" class="node">
<title>acoustic feature</title>
<text text-anchor="middle" x="286.5" y="-302.3" font-family="Times,serif" font-size="14.00">acoustic feature</text>
</g>
<!-- acoustic lstm&#45;&gt;acoustic feature -->
<g id="edge10" class="edge">
<title>acoustic lstm&#45;&gt;acoustic feature</title>
<path fill="none" stroke="black" d="M283.49,-359.7C283.93,-351.98 284.46,-342.71 284.95,-334.11"/>
<polygon fill="black" stroke="black" points="288.45,-334.29 285.52,-324.1 281.46,-333.89 288.45,-334.29"/>
</g>
<!-- acoustic lstm&#45;&gt;cat -->
<!-- acoustic model -->
<g id="node14" class="node">
<title>acoustic model</title>
<polygon fill="none" stroke="black" points="339.5,-252 241.5,-252 241.5,-216 339.5,-216 339.5,-252"/>
<text text-anchor="middle" x="290.5" y="-230.3" font-family="Times,serif" font-size="14.00">acoustic model</text>
</g>
<!-- acoustic feature&#45;&gt;acoustic model -->
<g id="edge11" class="edge">
<title>acoustic feature&#45;&gt;acoustic model</title>
<path fill="none" stroke="black" d="M287.49,-287.7C287.93,-279.98 288.46,-270.71 288.95,-262.11"/>
<polygon fill="black" stroke="black" points="292.45,-262.29 289.52,-252.1 285.46,-261.89 292.45,-262.29"/>
</g>
<!-- acoustic feature&#45;&gt;cat -->
<g id="edge20" class="edge">
<title>acoustic feature&#45;&gt;cat</title>
<path fill="none" stroke="black" d="M307.51,-324.1C318.31,-332.89 331.63,-343.73 343.39,-353.31"/>
<polygon fill="black" stroke="black" points="341.28,-356.1 351.24,-359.7 345.7,-350.67 341.28,-356.1"/>
</g>
<!-- acoustic prediction -->
<g id="node15" class="node">
<title>acoustic prediction</title>
<text text-anchor="middle" x="297.5" y="-158.3" font-family="Times,serif" font-size="14.00">acoustic prediction</text>
</g>
<!-- acoustic model&#45;&gt;acoustic prediction -->
<g id="edge12" class="edge">
<title>acoustic model&#45;&gt;acoustic prediction</title>
<path fill="none" stroke="black" d="M292.23,-215.7C293,-207.98 293.93,-198.71 294.79,-190.11"/>
<polygon fill="black" stroke="black" points="298.28,-190.4 295.79,-180.1 291.31,-189.71 298.28,-190.4"/>
</g>
<!-- acoustic prediction&#45;&gt;average or vote or NN -->
<g id="edge24" class="edge">
<title>acoustic prediction&#45;&gt;average or vote or NN</title>
<path fill="none" stroke="black" d="M281.19,-143.7C273.19,-135.22 263.43,-124.86 254.68,-115.58"/>
<polygon fill="black" stroke="black" points="257.03,-112.98 247.63,-108.1 251.94,-117.78 257.03,-112.98"/>
</g>
<!-- multimodal feature -->
<g id="node16" class="node">
<title>multimodal feature</title>
<text text-anchor="middle" x="443.5" y="-302.3" font-family="Times,serif" font-size="14.00">multimodal feature</text>
</g>
<!-- multimodal model -->
<g id="node17" class="node">
<title>multimodal model</title>
<polygon fill="none" stroke="black" points="501.5,-252 385.5,-252 385.5,-216 501.5,-216 501.5,-252"/>
<text text-anchor="middle" x="443.5" y="-230.3" font-family="Times,serif" font-size="14.00">multimodal model</text>
</g>
<!-- multimodal feature&#45;&gt;multimodal model -->
<g id="edge13" class="edge">
<title>multimodal feature&#45;&gt;multimodal model</title>
<path fill="none" stroke="black" d="M443.5,-287.7C443.5,-279.98 443.5,-270.71 443.5,-262.11"/>
<polygon fill="black" stroke="black" points="447,-262.1 443.5,-252.1 440,-262.1 447,-262.1"/>
</g>
<!-- multimodal prediction -->
<g id="node18" class="node">
<title>multimodal prediction</title>
<text text-anchor="middle" x="443.5" y="-158.3" font-family="Times,serif" font-size="14.00">multimodal prediction</text>
</g>
<!-- multimodal model&#45;&gt;multimodal prediction -->
<g id="edge14" class="edge">
<title>multimodal model&#45;&gt;multimodal prediction</title>
<path fill="none" stroke="black" d="M443.5,-215.7C443.5,-207.98 443.5,-198.71 443.5,-190.11"/>
<polygon fill="black" stroke="black" points="447,-190.1 443.5,-180.1 440,-190.1 447,-190.1"/>
</g>
<!-- multimodal prediction&#45;&gt;average or vote or NN -->
<g id="edge25" class="edge">
<title>multimodal prediction&#45;&gt;average or vote or NN</title>
<path fill="none" stroke="black" d="M391.91,-143.97C362.03,-134.1 324.24,-121.62 292.84,-111.25"/>
<polygon fill="black" stroke="black" points="293.91,-107.92 283.32,-108.11 291.72,-114.57 293.91,-107.92"/>
</g>
<!-- cat&#45;&gt;multimodal feature -->
<g id="edge21" class="edge">
<title>cat&#45;&gt;multimodal feature</title>
<path fill="none" stroke="black" d="M390.05,-359.7C398.73,-351.14 409.36,-340.66 418.85,-331.3"/>
<polygon fill="black" stroke="black" points="421.49,-333.62 426.15,-324.1 416.57,-328.63 421.49,-333.62"/>
</g>
<!-- label -->
<g id="node21" class="node">
<title>label</title>
<text text-anchor="middle" x="231.5" y="-14.3" font-family="Times,serif" font-size="14.00">label</text>
</g>
<!-- average or vote or NN&#45;&gt;label -->
<g id="edge26" class="edge">
<title>average or vote or NN&#45;&gt;label</title>
<path fill="none" stroke="black" d="M231.5,-71.7C231.5,-63.98 231.5,-54.71 231.5,-46.11"/>
<polygon fill="black" stroke="black" points="235,-46.1 231.5,-36.1 228,-46.1 235,-46.1"/>
</g>
</g>
</svg>
