<?xml version="1.0" encoding="UTF-8" standalone="no"?>
<!DOCTYPE svg PUBLIC "-//W3C//DTD SVG 1.1//EN"
 "http://www.w3.org/Graphics/SVG/1.1/DTD/svg11.dtd">
<!-- Generated by graphviz version 2.49.3 (0)
 -->
<!-- Title: G Pages: 1 -->
<svg width="184pt" height="260pt"
 viewBox="0.00 0.00 183.50 260.00" xmlns="http://www.w3.org/2000/svg" xmlns:xlink="http://www.w3.org/1999/xlink">
<g id="graph0" class="graph" transform="scale(1 1) rotate(0) translate(4 256)">
<title>G</title>
<polygon fill="white" stroke="transparent" points="-4,4 -4,-256 179.5,-256 179.5,4 -4,4"/>
<!-- RGB data -->
<g id="node1" class="node">
<title>RGB data</title>
<text text-anchor="middle" x="35.5" y="-230.3" font-family="Times,serif" font-size="14.00">RGB data</text>
</g>
<!-- cat or + -->
<g id="node2" class="node">
<title>cat or +</title>
<polygon fill="none" stroke="black" points="113,-180 54,-180 54,-144 113,-144 113,-180"/>
<text text-anchor="middle" x="83.5" y="-158.3" font-family="Times,serif" font-size="14.00">cat or +</text>
</g>
<!-- RGB data&#45;&gt;cat or + -->
<g id="edge1" class="edge">
<title>RGB data&#45;&gt;cat or +</title>
<path fill="none" stroke="black" d="M47.37,-215.7C53,-207.47 59.85,-197.48 66.07,-188.42"/>
<polygon fill="black" stroke="black" points="69,-190.33 71.77,-180.1 63.23,-186.37 69,-190.33"/>
</g>
<!-- model -->
<g id="node4" class="node">
<title>model</title>
<polygon fill="none" stroke="black" points="110.5,-108 56.5,-108 56.5,-72 110.5,-72 110.5,-108"/>
<text text-anchor="middle" x="83.5" y="-86.3" font-family="Times,serif" font-size="14.00">model</text>
</g>
<!-- cat or +&#45;&gt;model -->
<g id="edge3" class="edge">
<title>cat or +&#45;&gt;model</title>
<path fill="none" stroke="black" d="M83.5,-143.7C83.5,-135.98 83.5,-126.71 83.5,-118.11"/>
<polygon fill="black" stroke="black" points="87,-118.1 83.5,-108.1 80,-118.1 87,-118.1"/>
</g>
<!-- infrared data -->
<g id="node3" class="node">
<title>infrared data</title>
<text text-anchor="middle" x="132.5" y="-230.3" font-family="Times,serif" font-size="14.00">infrared data</text>
</g>
<!-- infrared data&#45;&gt;cat or + -->
<g id="edge2" class="edge">
<title>infrared data&#45;&gt;cat or +</title>
<path fill="none" stroke="black" d="M120.39,-215.7C114.63,-207.47 107.64,-197.48 101.29,-188.42"/>
<polygon fill="black" stroke="black" points="104.08,-186.29 95.47,-180.1 98.34,-190.3 104.08,-186.29"/>
</g>
<!-- label -->
<g id="node5" class="node">
<title>label</title>
<text text-anchor="middle" x="83.5" y="-14.3" font-family="Times,serif" font-size="14.00">label</text>
</g>
<!-- model&#45;&gt;label -->
<g id="edge4" class="edge">
<title>model&#45;&gt;label</title>
<path fill="none" stroke="black" d="M83.5,-71.7C83.5,-63.98 83.5,-54.71 83.5,-46.11"/>
<polygon fill="black" stroke="black" points="87,-46.1 83.5,-36.1 80,-46.1 87,-46.1"/>
</g>
</g>
</svg>
